<svg height="59" viewBox="0 0 119 59" width="119" xmlns="http://www.w3.org/2000/svg">
  <g>
    <path d="m9.054 33.89c5.107-.906 11.06-4.783 12.235-9.782.037-.11 0-.182-.073-.254-.074-.073-.184-.073-.257-.073-2.131.58-3.785.979-5.401 1.341-.845.181-1.654.399-2.572.616-.11.036-.22.145-.184.254.11 2.355-2.131 4.166-4.372 4.565-1.103.18-2.095 0-2.793-.508-1.102-.87-1.323-2.572-.588-4.384 1.066-2.572 3.748-4.6 7.459-5.797 1.36-.434 2.903-.797 4.556-1.086 3.344-.58 7.201-.87 12.162-.906 3.894-.036 7.936.108 11.83.217 3.785.109 7.312.254 10.656.218 2.903-.037 5.29-.145 7.275-.399.073 0 .11-.036.147-.072 1.323-1.051 4.63-3.986 7.79-7.392.073-.072.11-.217.036-.326-.074-.108-.184-.145-.294-.108-1.764.543-3.748.978-6.026 1.376-6.613 1.16-14.33 1.558-22.523 1.957-2.02.109-4.152.217-6.21.326-3.93.217-8.376.507-12.712 1.268-4.813.833-8.708 2.138-11.941 4.022-3.124 1.811-6.724 5.326-7.202 8.84-.22 1.667.258 3.152 1.397 4.275 1.286 1.268 3.27 1.957 5.621 1.92.588 0 1.213-.072 1.837-.144z"/><path d="m30.927 20.11c-.037-.073-.146-.11-.22-.11h-.036l-5.957 1.616c-.11.037-.219.147-.219.257s.073.258.22.258c.036 0 .072.036.109.073.073.074.11.184.146.22.22.258.329.441.037 1.433v.074c-1.681 3.673-2.997 6.245-4.459 9.22v.037c-.913 1.836-2.046 4.077-3.398 6.906-1.06 2.167-1.645 3.233-3.363 6.318l-.402.661c-2.412 4.372-3.252 6.245-4.385 8.817 0 .037 0 .073.037.11h.036c.037 0 .037 0 .073-.037 3.033-2.939 7.053-4.812 11.256-5.18.037 0 .073-.036.073-.036v-.074c-1.681-2.314-.329-6.906 1.498-10.469.439-.882.841-1.616 1.06-2.13l7.967-17.634a.737.737 0 0 0 -.073-.33zm87.472-19.18c-.552-.633-1.36-.93-2.39-.93-.33 0-.698.037-1.103.112-5.146 1.078-8.271 5.948-10.844 11.041h-.368c-.441 0-.882-.037-1.36-.037-1.397-.074-2.757-.074-4.08-.074-3.273.037-6.103.26-8.714.743-4.962.892-9.595 3.458-12.094 5.39a.244.244 0 0 0 -.074.335c.074.112.184.186.331.112a9.461 9.461 0 0 1 1.948-.52c1.324-.224 4.485.26 5.147 2.119.037.074.11.148.184.185.11.038.184 0 .257-.074 1.802-2.045 5.368-4.424 8.235-4.944 2.095-.372 4.448-.558 6.728-.558h2.499c-.882 2.045-1.654 3.755-2.39 5.39-.882-1.412-2.242-2.156-3.933-2.156-.33 0-.661.037-1.03.112-4.3.78-8.896 5.911-10.256 11.413-.11.372-.184.78-.22 1.19-1.14 2.23-5.037 5.948-8.309 6.543-1.102.186-2.058.074-2.794-.335-.551-.334-.919-1.226-1.102-1.97 4.852-1.115 8.381-4.461 10.072-7.212 1.14-1.822 1.03-2.9.736-4.164-.368-1.71-1.618-2.603-3.53-2.603-.33 0-.698.038-1.102.112-2.316.335-4.743 1.747-6.801 3.978-1.912 2.045-3.309 4.61-3.897 7.026-.368 1.599-.441 3.012-.22 4.276-1.545 1.636-4.302 3.717-6.949 4.2-1.103.187-2.059.075-2.794-.334-.551-.334-.882-.818-1.066-1.487 4.853-1.115 8.382-4.461 10.073-7.212 1.103-1.785 1.58-3.57 1.323-4.796-.367-1.71-1.617-2.603-3.529-2.603-.33 0-.698.038-1.103.112-.073 0-.147.037-.22.037-1.949.335-4.007 1.524-5.956 3.346a56.09 56.09 0 0 1 -4.08 2.751c-.037-1.896-.625-2.862-1.14-3.346-.551-.52-1.287-.706-2.059-.557-1.213.223-2.352 1.226-2.83 2.528-.331.892-.625 2.75.956 4.981-2.72 5.13-7.463 9.406-8.97 10.336-.074.037-.148.074-.221.074a.674.674 0 0 1 -.662-.297c-.184-.26-.184-.595-.037-.967l.552-1.301c1.838-4.424 3.713-8.96 5.772-13.904a.231.231 0 0 0 -.037-.26.332.332 0 0 0 -.258-.112l-5.771 1.264c-.037 0-.037.037-.074.037v.074c.147.298.184 1.487.037 2.008-.588 1.413-1.213 2.863-1.801 4.312-1.066 2.528-2.132 5.094-3.199 7.659-1.617 1.115-2.279 1.561-4.08 2.602a.583.583 0 0 1 -.294.112h-.074a.28.28 0 0 1 -.184-.075c-.073-.111-.073-.334.11-.743l.589-1.413c1.911-4.647 3.75-9.034 5.735-13.792a.231.231 0 0 0 -.037-.26.332.332 0 0 0 -.257-.112l-6.397 1.152c-.11.037-.22.149-.22.26a.28.28 0 0 0 .183.26.99.99 0 0 1 .625.447c.147.334.147.78-.037 1.264a619.116 619.116 0 0 1 -1.985 4.759l-.147.408a705.806 705.806 0 0 0 -2.978 7.176c-.661 1.784-.55 3.383.221 4.387.588.743 1.544 1.078 2.573.892a4.7 4.7 0 0 0 1.691-.707 63.233 63.233 0 0 0 4.633-3.42 2.997 2.997 0 0 0 1.029 1.562c.735.557 1.764.78 2.83.594.478-.074.993-.26 1.471-.483 2.573-.93 8.97-6.246 13.86-13.42.146-.112.294-.224.477-.335-.294.669-.478 1.3-.625 1.896-.698 2.974-.367 5.353.993 6.877.993 1.116 2.463 1.673 4.301 1.673.515 0 1.066-.074 1.618-.148a9.991 9.991 0 0 0 1.433-.335c2.905-.892 6.066-3.011 7.904-5.28.074.112.184.224.258.335 1.213 1.376 3.088 2.157 4.963 2.157a5.55 5.55 0 0 0 1.102-.112 9.991 9.991 0 0 0 1.434-.334c3.198-1.004 6.507-3.941 8.198-6.432.22 1.152.662 2.082 1.324 2.825.845.967 2.058 1.45 3.418 1.45.331 0 .662-.037.993-.111 1.434-.26 2.978-1.041 4.448-2.23.515.668 1.287 1.04 2.206 1.003.22 0 .404-.037.625-.074a5.19 5.19 0 0 0 1.801-.707c.405-.26.736-.483 1.03-.669 1.213-.78 1.654-1.04 2.426-1.784.551-.298 1.103-.223 1.434.185.404.484.44 1.302.147 2.231-1.103 4.09-5.698 5.651-13.786 7.1-.515.075-1.03.187-1.507.261-5.735.93-11.801 1.524-17.646 2.12h-.037c-3.088.297-6.286.631-9.411 1.003-6.911.78-14.08 1.599-20.11 2.677-5.587 1.004-9.741 1.896-13.086 3.197-.037 0-.074.037-.074.074 0 .038.037.075.074.075a18.807 18.807 0 0 1 8.933 6.952c0 .037.037.037.073.037.037 0 .037 0 .074-.037 4.08-4.276 23.675-8.142 31.91-9.592 2.132-.372 4.264-.743 6.653-1.152l.221-.038c1.985-.334 3.97-.669 5.845-1.003 5.22-.93 8.529-1.599 11.14-2.268 3.271-.818 6.653-1.822 9.374-3.718.073-.037 6.286-4.61 3.933-9.443-.441-.93-1.617-1.301-1.948-1.413-.515-.148-1.14-.148-1.802-.037-1.47.26-2.169.67-2.83 1.264-.258.149-.552.149-.625.075-.074-.075-.074-.335.147-.744.919-2.045 1.875-4.127 2.794-6.171l.257-.595c1.47-3.234 3.162-6.915 4.78-10.521 4.227-1.636 9.851-6.209 10.734-9.666.478-1.227.294-2.305-.331-3.012zm-3.272 2.676c-.33 2.268-3.235 5.205-5.845 6.692 1.213-2.565 3.97-7.138 5.294-7.51h.146c.11 0 .184.037.258.112.147.074.22.372.147.706zm-16.984 20.56-.074.185c-.992 2.193-2.022 4.424-2.977 6.543 0 .037-.037.074-.037.112-1.066 1.264-2.243 2.044-3.235 2.23-.736.149-1.324-.037-1.728-.52-.735-.892-.735-2.64-.074-4.684 1.103-3.346 3.824-6.32 6.176-6.73.147-.037.295-.037.442-.037.44 0 .772.112 1.029.372.478.446.625 1.338.478 2.528zm-24.963 5.835c.699-2.417 2.61-5.13 5-5.763.11-.037.257-.037.368-.037h.073c.257 0 .404.149.515.26.11.15.11.335.11.41-.846 2.936-4.264 4.72-6.066 5.13zm-15.808 4.721c.405-1.264 1.287-2.974 2.316-4.387 1.287-1.784 2.61-2.9 3.713-3.197.11-.037.258-.037.368-.037h.074c.183 0 .33.074.44.186.111.149.185.372.148.52-.11 2.789-5 6.283-7.059 6.915z"/>
  </g>
</svg>
